<?xml version="1.0" encoding="UTF-8"?>
<svg xmlns="http://www.w3.org/2000/svg" xmlns:se="https://standardebooks.org/vocab/1.0" version="1.1" viewBox="0 0 1400 340" se:generated-from="5ec76bdc8191add0e388716ee259366976639168">
	<path d="M 321.3728,50.001206 C 308.92799,50.001206 296.20247,59.171066 296.20247,73.580846 296.20247,81.627866 301.62953,88.832756 310.89296,93.417686 320.06282,98.002616 328.29698,100.52901 328.29698,106.14321 328.29698,113.3481 320.99852,113.72238 317.16215,113.72238 308.55371,113.72238 298.26101,105.02037 298.26101,105.02037 L 289.46543,119.80443 C 289.46543,119.80443 300.41312,130.00356 318.47213,130.00356 333.5369,130.00356 347.5724,123.54723 347.5724,105.11394 347.5724,95.008376 338.12183,87.709916 329.51339,84.060686 320.71781,80.317886 313.41935,77.230076 313.41935,72.925856 313.41935,68.715206 316.60073,66.001676 322.58921,66.001676 330.54266,66.001676 338.2154,71.335166 338.2154,71.335166 L 345.32672,57.299666 C 345.32672,57.299666 335.4083,50.001206 321.3728,50.001206 Z"/>
	<path d="M 378.38602,97.628336 403.27564,97.628336 403.27564,128.60001 420.8668,128.60001 420.8668,51.404756 403.27564,51.404756 403.27564,82.189286 378.38602,82.189286 378.38602,51.404756 360.79486,51.404756 360.79486,128.60001 378.38602,128.60001 378.38602,97.628336 Z"/>
	<path d="M 433.6068,89.955596 C 433.6068,112.50597 449.70084,130.00356 472.53192,130.00356 494.70801,130.00356 511.36347,112.50597 511.36347,89.955596 511.36347,67.405226 493.95945,50.001206 472.53192,50.001206 451.29153,50.001206 433.6068,67.405226 433.6068,89.955596 Z M 452.60151,89.955596 C 452.60151,78.446486 458.96427,66.937376 472.53192,66.937376 486.19314,66.937376 492.36876,78.446486 492.36876,89.955596 492.36876,101.46471 486.56742,112.97382 472.53192,112.97382 458.12214,112.97382 452.60151,101.46471 452.60151,89.955596 Z"/>
	<path d="M 524.1254,51.404756 524.1254,128.60001 541.71656,128.60001 541.71656,98.096186 565.2962,128.60001 587.65943,128.60001 561.08555,96.692636 C 570.53612,93.698396 576.89888,85.932086 576.89888,74.329406 576.89888,59.171066 566.04476,51.404756 551.72855,51.404756 L 524.1254,51.404756 Z M 541.71656,85.651376 541.71656,65.440256 543.7751,65.440256 C 550.41857,65.440256 558.37202,65.908106 558.37202,75.545816 558.37202,85.183526 550.41857,85.651376 543.7751,85.651376 L 541.71656,85.651376 Z"/>
	<path d="M 587.67535,66.843806 606.01507,66.843806 606.01507,128.60001 623.60623,128.60001 623.60623,66.843806 641.94595,66.843806 641.94595,51.404756 587.67535,51.404756 587.67535,66.843806 Z"/>
	<path d="M 710.48422,50.001206 C 698.03941,50.001206 685.31389,59.171066 685.31389,73.580846 685.31389,81.627866 690.74095,88.832756 700.00438,93.417686 709.17424,98.002616 717.4084,100.52901 717.4084,106.14321 717.4084,113.3481 710.10994,113.72238 706.27357,113.72238 697.66513,113.72238 687.37243,105.02037 687.37243,105.02037 L 678.57685,119.80443 C 678.57685,119.80443 689.52454,130.00356 707.58355,130.00356 722.64832,130.00356 736.68382,123.54723 736.68382,105.11394 736.68382,95.008376 727.23325,87.709916 718.62481,84.060686 709.82923,80.317886 702.53077,77.230076 702.53077,72.925856 702.53077,68.715206 705.71215,66.001676 711.70063,66.001676 719.65408,66.001676 727.32682,71.335166 727.32682,71.335166 L 734.43814,57.299666 C 734.43814,57.299666 724.51972,50.001206 710.48422,50.001206 Z"/>
	<path d="M 740.47179,66.843806 758.81151,66.843806 758.81151,128.60001 776.40267,128.60001 776.40267,66.843806 794.74239,66.843806 794.74239,51.404756 740.47179,51.404756 740.47179,66.843806 Z"/>
	<path d="M 799.69123,89.955596 C 799.69123,112.50597 815.78527,130.00356 838.61635,130.00356 860.79244,130.00356 877.4479,112.50597 877.4479,89.955596 877.4479,67.405226 860.04388,50.001206 838.61635,50.001206 817.37596,50.001206 799.69123,67.405226 799.69123,89.955596 Z M 818.68594,89.955596 C 818.68594,78.446486 825.0487,66.937376 838.61635,66.937376 852.27757,66.937376 858.45319,78.446486 858.45319,89.955596 858.45319,101.46471 852.65185,112.97382 838.61635,112.97382 824.20657,112.97382 818.68594,101.46471 818.68594,89.955596 Z"/>
	<path d="M 890.20981,51.404756 890.20981,128.60001 907.80097,128.60001 907.80097,98.096186 931.38061,128.60001 953.74384,128.60001 927.16996,96.692636 C 936.62053,93.698396 942.98329,85.932086 942.98329,74.329406 942.98329,59.171066 932.12917,51.404756 917.81296,51.404756 L 890.20981,51.404756 Z M 907.80097,85.651376 907.80097,65.440256 909.85951,65.440256 C 916.50298,65.440256 924.45643,65.908106 924.45643,75.545816 924.45643,85.183526 916.50298,85.651376 909.85951,85.651376 L 907.80097,85.651376 Z"/>
	<path d="M 979.87165,51.404756 962.28049,51.404756 962.28049,128.60001 979.87165,128.60001 979.87165,51.404756 Z"/>
	<path d="M 1040.3206,51.404756 996.15561,51.404756 996.15561,128.60001 1040.3206,128.60001 1040.3206,113.16096 1013.7468,113.16096 1013.7468,97.628336 1039.1978,97.628336 1039.1978,82.189286 1013.7468,82.189286 1013.7468,66.843806 1040.3206,66.843806 1040.3206,51.404756 Z"/>
	<path d="M 1083.8788,50.001206 C 1071.434,50.001206 1058.7085,59.171066 1058.7085,73.580846 1058.7085,81.627866 1064.1356,88.832756 1073.399,93.417686 1082.5689,98.002616 1090.803,100.52901 1090.803,106.14321 1090.803,113.3481 1083.5046,113.72238 1079.6682,113.72238 1071.0598,113.72238 1060.7671,105.02037 1060.7671,105.02037 L 1051.9715,119.80443 C 1051.9715,119.80443 1062.9192,130.00356 1080.9782,130.00356 1096.0429,130.00356 1110.0784,123.54723 1110.0784,105.11394 1110.0784,95.008376 1100.6279,87.709916 1092.0194,84.060686 1083.2239,80.317886 1075.9254,77.230076 1075.9254,72.925856 1075.9254,68.715206 1079.1068,66.001676 1085.0953,66.001676 1093.0487,66.001676 1100.7214,71.335166 1100.7214,71.335166 L 1107.8328,57.299666 C 1107.8328,57.299666 1097.9143,50.001206 1083.8788,50.001206 Z"/>
	<path d="M 250.48741,229.99881 C 241.15347,229.99881 231.60899,236.87645 231.60899,247.68417 231.60899,253.71965 235.67943,259.12351 242.62725,262.56233 249.50489,266.00115 255.68073,267.89601 255.68073,272.10681 255.68073,277.51067 250.20669,277.79139 247.32931,277.79139 240.87275,277.79139 233.15295,271.26465 233.15295,271.26465 L 226.55603,282.35309 C 226.55603,282.35309 234.76709,290.00271 248.31183,290.00271 259.61081,290.00271 270.13781,285.16029 270.13781,271.33483 270.13781,263.75539 263.04963,258.28135 256.59307,255.54433 249.99615,252.73713 244.52211,250.42119 244.52211,247.19291 244.52211,244.03481 246.90823,241.99959 251.39975,241.99959 257.36505,241.99959 263.11981,245.99985 263.11981,245.99985 L 268.45349,235.47285 C 268.45349,235.47285 261.01441,229.99881 250.48741,229.99881 Z"/>
	<path d="M 274.22876,242.63121 287.98404,242.63121 287.98404,288.95001 301.17788,288.95001 301.17788,242.63121 314.93316,242.63121 314.93316,231.05151 274.22876,231.05151 274.22876,242.63121 Z"/>
	<path d="M 350.66323,231.05151 338.45191,231.05151 315.08197,288.95001 329.25833,288.95001 333.53931,277.37031 355.57583,277.37031 359.85681,288.95001 374.03317,288.95001 350.66323,231.05151 Z M 351.08431,265.79061 338.03083,265.79061 344.48739,248.94741 344.62775,248.94741 351.08431,265.79061 Z"/>
	<path d="M 394.41685,253.01785 394.55721,253.01785 417.57625,288.95001 430.77009,288.95001 430.77009,231.05151 417.57625,231.05151 417.57625,266.98367 417.43589,266.98367 394.41685,231.05151 381.22301,231.05151 381.22301,288.95001 394.41685,288.95001 394.41685,253.01785 Z"/>
	<path d="M 457.39759,231.05151 444.20375,231.05151 444.20375,288.95001 477.32871,288.95001 477.32871,277.37031 457.39759,277.37031 457.39759,231.05151 Z"/>
	<path d="M 521.94202,231.05151 488.81706,231.05151 488.81706,288.95001 521.94202,288.95001 521.94202,277.37031 502.0109,277.37031 502.0109,265.72043 521.09986,265.72043 521.09986,254.14073 502.0109,254.14073 502.0109,242.63121 521.94202,242.63121 521.94202,231.05151 Z"/>
	<path d="M 528.21076,231.05151 549.54548,262.98341 549.54548,288.95001 562.73932,288.95001 562.73932,262.98341 584.07404,231.05151 568.21336,231.05151 556.1424,249.57903 544.07144,231.05151 528.21076,231.05151 Z"/>
	<path d="M 667.7466,256.52685 641.00802,256.52685 641.00802,266.70295 654.34222,266.70295 C 654.34222,273.79113 648.0962,277.86157 641.78,277.86157 633.63912,277.86157 627.0422,269.86105 627.0422,260.03585 627.0422,250.00011 633.63912,241.92941 641.78,241.92941 646.90314,241.92941 651.32448,243.96463 654.69312,249.36849 L 663.32526,239.89419 C 658.2723,233.78853 651.18412,229.99881 641.00802,229.99881 624.72626,229.99881 612.79566,243.40319 612.79566,260.03585 612.79566,276.59833 625.42806,290.00271 641.00802,290.00271 652.37718,290.00271 664.5885,283.75669 667.7466,269.08907 L 667.7466,256.52685 Z"/>
	<path d="M 686.51063,273.93149 C 682.08929,273.93149 678.51011,277.51067 678.51011,282.00219 678.51011,286.42353 682.08929,290.00271 686.51063,290.00271 691.00215,290.00271 694.58133,286.42353 694.58133,282.00219 694.58133,277.51067 691.00215,273.93149 686.51063,273.93149 Z"/>
	<path d="M 770.76548,288.95001 785.36292,288.95001 801.85522,231.05151 787.25778,231.05151 777.3624,270.77339 777.0115,270.77339 766.4845,231.05151 756.51894,231.05151 745.99194,270.77339 745.64104,270.77339 735.74566,231.05151 721.07804,231.05151 737.57034,288.95001 752.23796,288.95001 761.50172,256.45667 770.76548,288.95001 Z"/>
	<path d="M 843.14484,231.05151 810.01988,231.05151 810.01988,288.95001 843.14484,288.95001 843.14484,277.37031 823.21372,277.37031 823.21372,265.72043 842.30268,265.72043 842.30268,254.14073 823.21372,254.14073 823.21372,242.63121 843.14484,242.63121 843.14484,231.05151 Z"/>
	<path d="M 868.92362,231.05151 855.72978,231.05151 855.72978,288.95001 868.92362,288.95001 868.92362,231.05151 Z"/>
	<path d="M 895.58072,253.01785 895.72108,253.01785 918.74012,288.95001 931.93396,288.95001 931.93396,231.05151 918.74012,231.05151 918.74012,266.98367 918.59976,266.98367 895.58072,231.05151 882.38688,231.05151 882.38688,288.95001 895.58072,288.95001 895.58072,253.01785 Z"/>
	<path d="M 945.3676,231.05151 945.3676,288.95001 967.33394,288.95001 C 979.33472,288.95001 986.28254,282.35309 986.28254,272.80861 986.28254,263.47467 981.1594,259.47441 973.93086,258.21117 978.84346,255.68469 981.1594,251.12299 981.1594,245.78931 981.1594,234.77105 973.29924,231.05151 963.33368,231.05151 L 945.3676,231.05151 Z M 958.56144,253.71965 958.56144,241.22761 959.61414,241.22761 C 965.3689,241.22761 968.38664,242.98211 968.38664,247.12273 968.38664,251.96515 965.29872,253.71965 959.61414,253.71965 L 958.56144,253.71965 Z M 958.56144,278.77391 958.56144,265.08881 962.70206,265.08881 C 968.94808,265.08881 972.3869,266.98367 972.3869,272.31735 972.3869,276.87905 968.94808,278.77391 962.70206,278.77391 L 958.56144,278.77391 Z"/>
	<path d="M 1025.1433,231.05151 1012.932,231.05151 989.56206,288.95001 1003.7384,288.95001 1008.0194,277.37031 1030.0559,277.37031 1034.3369,288.95001 1048.5133,288.95001 1025.1433,231.05151 Z M 1025.5644,265.79061 1012.5109,265.79061 1018.9675,248.94741 1019.1078,248.94741 1025.5644,265.79061 Z"/>
	<path d="M 1100.1972,231.05151 1087.0034,231.05151 1087.0034,264.52737 C 1087.0034,274.21221 1084.0558,277.01941 1077.5993,277.01941 1071.1427,277.01941 1068.1951,274.21221 1068.1951,264.52737 L 1068.1951,231.05151 1055.0013,231.05151 1055.0013,268.38727 C 1055.0013,282.70399 1062.8615,290.00271 1077.5993,290.00271 1092.3371,290.00271 1100.1972,282.70399 1100.1972,268.38727 L 1100.1972,231.05151 Z"/>
	<path d="M 1160.7896,288.95001 1173.9835,288.95001 1168.7901,231.05151 1154.7541,231.05151 1141.9112,264.45719 1129.0683,231.05151 1115.0323,231.05151 1109.8389,288.95001 1123.0328,288.95001 1125.7698,254.63199 1126.1207,254.63199 1137.9811,288.59911 1145.8413,288.59911 1157.7017,254.63199 1158.0526,254.63199 1160.7896,288.95001 Z"/>
</svg>
